<?xml version="1.0" standalone="no"?>
<!DOCTYPE svg PUBLIC "-//W3C//DTD SVG 20010904//EN"
 "http://www.w3.org/TR/2001/REC-SVG-20010904/DTD/svg10.dtd">
<svg version="1.0" xmlns="http://www.w3.org/2000/svg"
 width="437.000000pt" height="396.000000pt" viewBox="0 0 437.000000 396.000000"
 preserveAspectRatio="xMidYMid meet">
<metadata>
Created by potrace 1.16, written by Peter Selinger 2001-2019
</metadata>
<g transform="translate(0.000000,396.000000) scale(0.100000,-0.100000)"
fill="#000000" stroke="none">
<path d="M2589 2574 l-117 -65 -7 -139 c-4 -77 -4 -143 -1 -148 3 -5 60 -42
126 -81 l121 -72 124 68 c98 53 125 72 125 89 0 20 -7 21 -115 27 -64 4 -120
9 -125 12 -15 10 -12 158 4 180 12 16 23 18 119 12 109 -6 135 1 122 34 -7 17
-228 149 -247 148 -7 0 -65 -29 -129 -65z"/>
<path d="M1634 2521 c-23 -10 -54 -35 -69 -55 -39 -51 -234 -331 -232 -333 1
-1 23 4 50 10 109 24 217 -33 271 -145 l32 -67 112 159 c125 178 143 221 122
294 -34 124 -171 189 -286 137z m164 -103 c11 -13 23 -35 27 -49 8 -31 -16
-83 -44 -99 -56 -30 -127 7 -137 71 -5 28 -1 41 21 67 22 27 34 32 69 32 31 0
48 -6 64 -22z"/>
<path d="M2013 2523 l-102 -4 32 -51 c28 -45 32 -60 32 -122 0 -39 -4 -88 -8
-108 l-8 -38 168 0 c182 0 223 10 270 61 51 57 50 156 -3 213 -54 57 -66 59
-381 49z"/>
<path d="M1360 2085 c-19 -9 -50 -30 -68 -48 -58 -56 -62 -90 -62 -474 l0
-343 -111 0 c-109 0 -111 0 -140 -29 -28 -28 -29 -33 -29 -125 l0 -96 490 0
490 0 0 86 c0 145 -20 163 -177 164 l-113 0 0 363 c0 362 0 364 -23 408 -48
90 -167 134 -257 94z m144 -96 c35 -41 34 -83 -3 -120 -60 -59 -151 -22 -151
63 0 85 100 122 154 57z"/>
<path d="M3153 1795 c-98 -27 -233 -114 -233 -151 0 -31 30 -24 89 20 151 111
341 125 495 36 28 -16 62 -40 75 -54 28 -30 56 -34 66 -8 14 37 -136 136 -245
161 -63 15 -185 12 -247 -4z"/>
<path d="M3175 1687 c-89 -30 -175 -88 -175 -119 0 -34 27 -30 81 11 126 95
295 91 422 -11 36 -28 40 -29 55 -14 15 14 14 18 -13 46 -17 17 -59 45 -94 63
-54 26 -77 31 -150 34 -52 2 -102 -2 -126 -10z"/>
<path d="M3187 1576 c-52 -19 -107 -63 -107 -87 0 -27 29 -24 70 6 80 59 198
59 269 0 36 -31 71 -33 71 -6 0 25 -53 66 -109 86 -53 18 -143 19 -194 1z"/>
<path d="M2992 958 l3 -263 288 -3 287 -2 0 265 0 265 -290 0 -290 0 2 -262z"/>
<path d="M711 884 c-17 -22 -21 -41 -21 -110 l0 -84 745 0 745 0 0 93 c0 78
-3 97 -18 110 -17 16 -82 17 -725 17 l-706 0 -20 -26z"/>
</g>
</svg>
